<?xml version="1.0" standalone="no"?>
<!DOCTYPE svg PUBLIC "-//W3C//DTD SVG 20010904//EN"
 "http://www.w3.org/TR/2001/REC-SVG-20010904/DTD/svg10.dtd">
<svg version="1.0" xmlns="http://www.w3.org/2000/svg"
 width="1682.000000pt" height="1682.000000pt" viewBox="0 0 1682.000000 1682.000000"
 preserveAspectRatio="xMidYMid meet">
<metadata>
Created by potrace 1.11, written by Peter Selinger 2001-2013
</metadata>
<g transform="translate(0.000000,1682.000000) scale(0.100000,-0.100000)"
fill="#000000" stroke="none">
<path d="M7960 16800 c-1184 -69 -2276 -357 -3310 -875 -1304 -653 -2415
-1631 -3227 -2842 -691 -1029 -1140 -2182 -1327 -3403 -100 -654 -122 -1394
-61 -2055 144 -1552 707 -3013 1638 -4258 923 -1233 2180 -2199 3599 -2768
780 -313 1543 -494 2428 -576 278 -26 1139 -26 1410 0 513 48 905 113 1345
223 1297 323 2481 946 3515 1850 174 151 593 570 744 744 984 1126 1636 2433
1930 3865 131 642 182 1253 164 1960 -37 1447 -463 2881 -1226 4125 -881 1436
-2178 2582 -3706 3274 -902 409 -1834 645 -2866 726 -183 15 -859 21 -1050 10z
m615 -3325 c196 -28 363 -87 490 -173 63 -43 70 -50 67 -77 -6 -56 -272 -1570
-288 -1635 -52 -220 -215 -276 -599 -209 -148 26 -388 42 -510 34 -197 -13
-393 -64 -546 -140 -270 -136 -534 -406 -712 -726 l-37 -66 0 -2266 0 -2267
-1105 0 -1105 0 0 3700 0 3701 753 -3 c739 -4 753 -4 830 -26 152 -42 234
-106 292 -226 45 -95 73 -218 141 -613 32 -183 60 -333 63 -332 4 0 42 53 86
117 44 64 125 173 180 242 115 145 382 416 505 514 329 260 632 400 980 450
128 19 391 19 515 1z m2915 -2839 c412 -52 730 -136 1048 -277 359 -159 734
-411 1023 -687 l104 -100 -300 -398 c-315 -419 -438 -560 -525 -601 -95 -44
-228 -55 -351 -29 -80 17 -102 28 -332 163 -211 124 -362 198 -507 246 -140
47 -228 64 -405 78 -322 25 -636 -32 -874 -157 -491 -259 -762 -790 -832
-1630 -15 -189 -6 -745 15 -914 62 -481 203 -866 421 -1145 297 -381 711 -553
1245 -515 247 17 355 44 539 131 148 70 222 118 448 286 234 175 269 191 433
200 172 9 290 -29 381 -124 26 -26 193 -230 373 -451 l326 -404 -39 -46 c-68
-82 -322 -324 -429 -410 -306 -245 -678 -448 -1055 -578 -443 -151 -853 -218
-1413 -231 -475 -10 -785 32 -1188 164 -816 266 -1468 828 -1877 1618 -237
456 -373 918 -435 1475 -21 196 -30 728 -15 930 90 1176 561 2125 1349 2717
297 224 647 405 1002 521 309 100 578 150 990 186 118 10 761 -3 880 -18z"/>
</g>
</svg>
