<?xml version="1.0" standalone="no"?>
<!DOCTYPE svg PUBLIC "-//W3C//DTD SVG 20010904//EN"
 "http://www.w3.org/TR/2001/REC-SVG-20010904/DTD/svg10.dtd">
<svg version="1.0" xmlns="http://www.w3.org/2000/svg"
 width="147.000000pt" height="147.000000pt" viewBox="0 0 147.000000 147.000000"
 preserveAspectRatio="xMidYMid meet">
<metadata>
Created by potrace 1.11, written by Peter Selinger 2001-2013
</metadata>
<g transform="translate(0.000000,147.000000) scale(0.100000,-0.100000)"
fill="#000000" stroke="none">
<path d="M575 1459 c-16 -6 -51 -12 -76 -13 -93 -7 -154 -39 -185 -98 -23 -44
-16 -57 8 -15 32 54 112 92 175 83 45 -6 113 -40 113 -56 0 -26 -144 -33 -204
-11 -24 10 -26 8 -36 -27 -7 -27 -21 -44 -51 -62 -52 -31 -133 -121 -178 -194
-109 -181 -128 -418 -48 -615 70 -173 198 -308 360 -380 79 -35 142 -51 231
-57 l71 -5 -55 21 c-141 52 -237 155 -291 310 -32 94 -31 250 1 335 31 81 82
157 139 204 l46 39 65 -20 c36 -11 82 -24 102 -30 45 -13 70 -38 74 -74 4 -41
15 -44 72 -25 58 20 105 59 129 106 9 17 27 39 41 51 36 30 24 62 -53 144 -53
56 -65 75 -65 102 0 26 -11 45 -46 83 -25 28 -62 74 -82 104 -57 83 -172 128
-257 100z m86 -18 c16 -1 44 -17 70 -41 l44 -40 -45 2 c-32 1 -59 12 -94 35
-26 18 -53 33 -60 34 -6 0 -2 4 9 8 11 5 27 7 35 5 8 -1 27 -3 41 -3z m-340
-257 c-219 -203 -265 -479 -127 -752 25 -49 46 -67 46 -40 0 22 16 -6 29 -49
6 -23 31 -72 55 -107 53 -79 32 -72 -52 18 -152 163 -225 411 -178 611 33 140
118 278 219 355 81 61 87 37 8 -36z m549 -106 c0 -4 -13 -2 -29 3 -33 12 -55
51 -39 67 8 8 19 1 39 -26 16 -20 29 -40 29 -44z m-379 -184 c-103 -110 -157
-224 -176 -372 -7 -54 -16 -32 -12 28 13 163 73 295 185 405 42 42 48 44 59
29 11 -15 3 -27 -56 -90z"/>
<path d="M1010 1336 c0 -3 21 -15 46 -28 76 -37 176 -138 218 -217 107 -205
92 -413 -38 -528 -181 -159 -445 -125 -589 77 l-17 25 5 -44 c6 -57 44 -137
86 -186 65 -73 190 -135 275 -135 49 0 49 -15 1 -30 -145 -44 -313 -10 -426
87 -48 40 -106 124 -117 168 -11 44 -26 4 -20 -51 19 -154 92 -260 228 -326
156 -77 361 -65 500 28 112 76 205 214 243 361 67 266 -42 573 -259 728 -58
41 -136 82 -136 71z"/>
</g>
</svg>
