<?xml version="1.0" standalone="no"?>
<!DOCTYPE svg PUBLIC "-//W3C//DTD SVG 20010904//EN"
 "http://www.w3.org/TR/2001/REC-SVG-20010904/DTD/svg10.dtd">
<svg version="1.0" xmlns="http://www.w3.org/2000/svg"
 width="512.000000pt" height="512.000000pt" viewBox="0 0 512.000000 512.000000"
 preserveAspectRatio="xMidYMid meet">
<metadata>
Created by potrace 1.11, written by Peter Selinger 2001-2013
</metadata>
<g transform="translate(0.000000,512.000000) scale(0.100000,-0.100000)"
fill="#000000" stroke="none">
<path d="M4106 5113 c-22 -6 -94 -50 -113 -68 -7 -7 -21 -30 -32 -51 -48 -92
-35 -185 36 -264 46 -52 210 -167 275 -194 50 -21 93 -6 107 37 19 61 29 277
17 361 -7 47 -58 119 -106 148 -45 28 -140 44 -184 31z"/>
<path d="M4780 4900 c-96 -28 -166 -112 -244 -295 -49 -117 -51 -131 -22 -160
14 -14 35 -26 48 -26 143 -7 335 17 396 50 32 17 71 66 93 115 45 103 -1 236
-101 290 -48 26 -129 38 -170 26z"/>
<path d="M4158 4469 c-93 -14 -155 -70 -208 -184 -21 -44 -46 -87 -56 -97 -47
-41 -143 -44 -241 -7 -130 49 -222 79 -259 85 -153 26 -314 -7 -429 -86 -53
-37 -114 -95 -131 -125 -10 -18 -16 -15 -86 53 -115 111 -93 121 -387 -172
-238 -237 -244 -245 -245 -285 -1 -39 -5 -44 -73 -96 -127 -96 -275 -259 -419
-460 -62 -87 -204 -301 -204 -309 0 -3 -24 -40 -52 -82 -52 -77 -168 -200
-282 -301 -57 -49 -59 -53 -53 -90 6 -37 5 -39 -42 -72 -42 -28 -52 -31 -71
-21 -40 21 -82 1 -242 -113 -368 -263 -518 -408 -602 -580 -53 -109 -65 -163
-61 -285 4 -171 52 -322 159 -506 76 -130 298 -375 426 -470 30 -22 57 -43 60
-47 13 -14 138 -84 222 -123 177 -84 382 -114 524 -77 138 35 251 108 392 251
84 86 156 176 335 427 243 338 289 396 411 518 91 90 137 126 253 198 162 100
350 230 462 320 103 82 290 271 326 330 27 42 33 47 60 44 17 -2 39 0 50 6 11
6 127 117 258 248 204 205 237 242 237 268 0 32 -30 73 -108 144 l-42 40 37
24 c113 74 203 261 205 421 1 119 -16 193 -81 354 -51 128 -49 233 6 284 13
12 46 30 72 39 208 69 268 298 118 449 -52 51 -91 73 -144 82 -21 3 -40 7 -43
8 -3 1 -26 -1 -52 -5z"/>
<path d="M4608 4216 c-26 -19 -36 -56 -27 -96 4 -19 11 -50 14 -68 13 -78 68
-224 98 -264 84 -112 250 -122 350 -23 42 43 59 85 63 155 3 80 -28 151 -84
191 -44 31 -156 73 -267 100 -93 22 -124 23 -147 5z"/>
</g>
</svg>
